<?xml version="1.0" encoding="UTF-8"?>
<!DOCTYPE svg PUBLIC "-//W3C//DTD SVG 1.1//EN" "http://www.w3.org/Graphics/SVG/1.1/DTD/svg11.dtd">
<svg xmlns="http://www.w3.org/2000/svg" version="1.1" width="500px" height="500px" style="shape-rendering:geometricPrecision; text-rendering:geometricPrecision; image-rendering:optimizeQuality; fill-rule:evenodd; clip-rule:evenodd" xmlns:xlink="http://www.w3.org/1999/xlink">
<g><path style="opacity:0.307" fill="#7d7d7d" d="M 152.5,126.5 C 190.996,125.501 229.663,125.168 268.5,125.5C 268.737,126.791 268.404,127.791 267.5,128.5C 229.515,126.506 191.181,125.839 152.5,126.5 Z"/></g>
<g><path style="opacity:0.876" fill="#f7f7f8" d="M 268.5,125.5 C 271.137,126.63 273.803,126.63 276.5,125.5C 276.5,125.833 276.5,126.167 276.5,126.5C 262.167,190.497 247.834,254.497 233.5,318.5C 235.091,310.208 235.925,301.874 236,293.5C 229.259,305.603 226.259,318.603 227,332.5C 228.707,334.909 229.54,337.575 229.5,340.5C 225.079,335.719 223.579,330.053 225,323.5C 232.17,291.326 239.337,259.16 246.5,227C 228.965,213.805 211.131,200.972 193,188.5C 193.34,184.007 194.173,179.673 195.5,175.5C 195.636,178.551 195.302,181.551 194.5,184.5C 194.719,185.938 195.219,187.271 196,188.5C 205.479,195.159 215.312,201.159 225.5,206.5C 227.604,203.72 229.438,200.72 231,197.5C 232.635,196.274 234.135,194.941 235.5,193.5C 233.607,191.048 232.274,188.381 231.5,185.5C 238.559,189.448 245.392,193.781 252,198.5C 257.231,175.179 262.398,151.845 267.5,128.5C 268.404,127.791 268.737,126.791 268.5,125.5 Z M 261.5,167.5 C 262.787,168.871 263.453,170.705 263.5,173C 263.054,179.99 261.221,186.49 258,192.5C 256.954,191.228 256.454,189.728 256.5,188C 258.077,181.112 259.743,174.279 261.5,167.5 Z"/></g>
<g><path style="opacity:0.186" fill="#8dc9e3" d="M 404.5,125.5 C 362.003,126.499 319.337,126.832 276.5,126.5C 276.5,126.167 276.5,125.833 276.5,125.5C 319.099,125.454 361.766,125.454 404.5,125.5 Z"/></g>
<g><path style="opacity:0.998" fill="#030303" d="M 152.5,126.5 C 191.181,125.839 229.515,126.506 267.5,128.5C 262.398,151.845 257.231,175.179 252,198.5C 245.392,193.781 238.559,189.448 231.5,185.5C 231.5,184.5 231.5,183.5 231.5,182.5C 232.768,180.095 233.435,177.428 233.5,174.5C 233.5,173.833 233.5,173.167 233.5,172.5C 234.451,171.081 234.784,169.415 234.5,167.5C 233.5,167.5 232.5,167.5 231.5,167.5C 229.167,167.5 226.833,167.5 224.5,167.5C 215.167,167.5 205.833,167.5 196.5,167.5C 196.5,168.833 196.5,170.167 196.5,171.5C 196.567,172.959 196.234,174.292 195.5,175.5C 194.173,179.673 193.34,184.007 193,188.5C 211.131,200.972 228.965,213.805 246.5,227C 239.337,259.16 232.17,291.326 225,323.5C 223.579,330.053 225.079,335.719 229.5,340.5C 211.346,341.833 192.846,342.5 174,342.5C 155.5,342.333 137,342.167 118.5,342C 115.975,341.576 113.975,340.41 112.5,338.5C 112.167,337.5 111.5,336.833 110.5,336.5C 108.133,334.433 106.8,331.766 106.5,328.5C 107.68,322.78 109.014,317.113 110.5,311.5C 111.768,309.095 112.435,306.428 112.5,303.5C 112.517,301.435 112.85,299.435 113.5,297.5C 114.913,294.781 115.58,291.781 115.5,288.5C 115.7,285.37 116.366,282.37 117.5,279.5C 119.102,275.761 120.102,271.761 120.5,267.5C 120.194,264.615 120.527,261.948 121.5,259.5C 123.04,257.162 123.706,254.495 123.5,251.5C 124.17,248.497 125.837,247.83 128.5,249.5C 128.973,250.906 129.973,251.573 131.5,251.5C 131.821,253.048 132.821,253.715 134.5,253.5C 135.659,255.25 137.326,256.25 139.5,256.5C 140.659,258.25 142.326,259.25 144.5,259.5C 145.167,259.5 145.5,259.833 145.5,260.5C 154.295,266.403 163.295,272.069 172.5,277.5C 170.366,285.038 168.7,292.705 167.5,300.5C 180.5,300.5 193.5,300.5 206.5,300.5C 207.908,291.794 209.574,283.128 211.5,274.5C 211.167,273.5 210.833,272.5 210.5,271.5C 194.464,260.449 178.464,249.449 162.5,238.5C 162.027,237.094 161.027,236.427 159.5,236.5C 159.027,235.094 158.027,234.427 156.5,234.5C 155.738,232.738 154.404,231.738 152.5,231.5C 151.738,229.738 150.404,228.738 148.5,228.5C 147.508,228.672 146.842,228.338 146.5,227.5C 145.738,225.738 144.404,224.738 142.5,224.5C 142.027,223.094 141.027,222.427 139.5,222.5C 138.128,221.488 136.795,220.488 135.5,219.5C 135.027,218.094 134.027,217.427 132.5,217.5C 132.846,212.784 133.513,208.117 134.5,203.5C 134.808,199.64 135.475,195.974 136.5,192.5C 137.924,190.485 138.59,188.152 138.5,185.5C 138.5,184.833 138.5,184.167 138.5,183.5C 139.913,180.781 140.58,177.781 140.5,174.5C 143.556,159.167 146.723,143.834 150,128.5C 150.417,127.244 151.25,126.577 152.5,126.5 Z"/></g>
<g><path style="opacity:0.998" fill="#1a91c8" d="M 404.5,125.5 C 413.825,126.159 418.825,131.159 419.5,140.5C 413.465,172.638 406.799,204.638 399.5,236.5C 398.833,237.5 398.167,238.5 397.5,239.5C 397.291,238.078 396.791,236.745 396,235.5C 393.399,242.209 389.232,247.709 383.5,252C 368.524,262.323 352.524,270.823 335.5,277.5C 343.624,240.881 351.624,204.214 359.5,167.5C 346.587,167.178 333.754,167.511 321,168.5C 311.39,212.492 301.89,256.492 292.5,300.5C 300.5,300.5 308.5,300.5 316.5,300.5C 312.795,311.178 315.128,320.345 323.5,328C 327.354,331.089 331.354,333.922 335.5,336.5C 338.203,338.181 340.869,339.847 343.5,341.5C 309.5,341.5 275.5,341.5 241.5,341.5C 240.508,341.672 239.842,341.338 239.5,340.5C 237.167,337.997 235.001,335.331 233,332.5C 232.539,327.816 232.705,323.149 233.5,318.5C 247.834,254.497 262.167,190.497 276.5,126.5C 319.337,126.832 362.003,126.499 404.5,125.5 Z"/></g>
<g><path style="opacity:0.696" fill="#d2d2d2" d="M 224.5,167.5 C 217.217,169.648 209.717,169.981 202,168.5C 199.808,168.863 197.974,169.863 196.5,171.5C 196.5,170.167 196.5,168.833 196.5,167.5C 205.833,167.5 215.167,167.5 224.5,167.5 Z"/></g>
<g><path style="opacity:0.333" fill="#d8d8d8" d="M 231.5,167.5 C 232.5,167.5 233.5,167.5 234.5,167.5C 234.784,169.415 234.451,171.081 233.5,172.5C 233.608,170.486 232.942,168.82 231.5,167.5 Z"/></g>
<g><path style="opacity:1" fill="#fdfefe" d="M 335.5,277.5 C 332.812,279.266 329.979,280.933 327,282.5C 326.348,285.594 326.682,288.594 328,291.5C 329.049,293.107 330.549,293.773 332.5,293.5C 332.408,295.848 331.408,297.514 329.5,298.5C 326.292,294.752 324.126,290.418 323,285.5C 320.947,289.586 320.113,293.92 320.5,298.5C 320.5,299.833 319.833,300.5 318.5,300.5C 318.631,299.761 318.464,299.094 318,298.5C 317.722,299.416 317.222,300.082 316.5,300.5C 308.5,300.5 300.5,300.5 292.5,300.5C 301.89,256.492 311.39,212.492 321,168.5C 333.754,167.511 346.587,167.178 359.5,167.5C 351.624,204.214 343.624,240.881 335.5,277.5 Z"/></g>
<g><path style="opacity:0.365" fill="#a8a8a8" d="M 140.5,174.5 C 140.58,177.781 139.913,180.781 138.5,183.5C 138.42,180.219 139.087,177.219 140.5,174.5 Z"/></g>
<g><path style="opacity:0.212" fill="#999999" d="M 233.5,174.5 C 233.435,177.428 232.768,180.095 231.5,182.5C 231.294,179.505 231.96,176.838 233.5,174.5 Z"/></g>
<g><path style="opacity:0.427" fill="#949494" d="M 138.5,185.5 C 138.59,188.152 137.924,190.485 136.5,192.5C 136.41,189.848 137.076,187.515 138.5,185.5 Z"/></g>
<g><path style="opacity:0.729" fill="#9a9a9a" d="M 134.5,203.5 C 133.513,208.117 132.846,212.784 132.5,217.5C 131.211,212.628 131.877,207.961 134.5,203.5 Z"/></g>
<g><path style="opacity:0.345" fill="#b5b5b5" d="M 132.5,217.5 C 134.027,217.427 135.027,218.094 135.5,219.5C 133.973,219.573 132.973,218.906 132.5,217.5 Z"/></g>
<g><path style="opacity:0.271" fill="#cacaca" d="M 139.5,222.5 C 141.027,222.427 142.027,223.094 142.5,224.5C 140.973,224.573 139.973,223.906 139.5,222.5 Z"/></g>
<g><path style="opacity:0.431" fill="#c8c8c8" d="M 142.5,224.5 C 144.404,224.738 145.738,225.738 146.5,227.5C 144.596,227.262 143.262,226.262 142.5,224.5 Z"/></g>
<g><path style="opacity:0.541" fill="#a7a7a7" d="M 148.5,228.5 C 150.404,228.738 151.738,229.738 152.5,231.5C 150.596,231.262 149.262,230.262 148.5,228.5 Z"/></g>
<g><path style="opacity:0.529" fill="#cbcbcb" d="M 152.5,231.5 C 154.404,231.738 155.738,232.738 156.5,234.5C 154.596,234.262 153.262,233.262 152.5,231.5 Z"/></g>
<g><path style="opacity:0.404" fill="#dddddd" d="M 156.5,234.5 C 158.027,234.427 159.027,235.094 159.5,236.5C 157.973,236.573 156.973,235.906 156.5,234.5 Z"/></g>
<g><path style="opacity:1" fill="#020506" d="M 397.5,239.5 C 398.021,244.846 397.021,249.846 394.5,254.5C 388.941,261.557 382.274,267.39 374.5,272C 360.845,279.993 346.845,287.16 332.5,293.5C 330.549,293.773 329.049,293.107 328,291.5C 326.682,288.594 326.348,285.594 327,282.5C 329.979,280.933 332.812,279.266 335.5,277.5C 352.524,270.823 368.524,262.323 383.5,252C 389.232,247.709 393.399,242.209 396,235.5C 396.791,236.745 397.291,238.078 397.5,239.5 Z"/></g>
<g><path style="opacity:0.447" fill="#d0d0d0" d="M 159.5,236.5 C 161.027,236.427 162.027,237.094 162.5,238.5C 160.973,238.573 159.973,237.906 159.5,236.5 Z"/></g>
<g><path style="opacity:0.696" fill="#dde4e8" d="M 399.5,236.5 C 399.01,240.487 399.676,244.154 401.5,247.5C 399.342,251.81 396.675,255.81 393.5,259.5C 394.038,257.883 394.371,256.216 394.5,254.5C 397.021,249.846 398.021,244.846 397.5,239.5C 398.167,238.5 398.833,237.5 399.5,236.5 Z"/></g>
<g><path style="opacity:0.337" fill="#ebebeb" d="M 162.5,238.5 C 178.464,249.449 194.464,260.449 210.5,271.5C 210.833,272.5 211.167,273.5 211.5,274.5C 209.574,283.128 207.908,291.794 206.5,300.5C 193.5,300.5 180.5,300.5 167.5,300.5C 168.7,292.705 170.366,285.038 172.5,277.5C 173.124,277.917 173.457,278.584 173.5,279.5C 171.248,285.684 170.081,292.017 170,298.5C 181.105,299.82 192.272,299.82 203.5,298.5C 204.531,297.3 205.365,295.966 206,294.5C 206.984,288.047 208.484,281.714 210.5,275.5C 209.5,274.167 208.5,272.833 207.5,271.5C 191.209,262.195 176.209,251.195 162.5,238.5 Z"/></g>
<g><path style="opacity:0.996" fill="#090b0c" d="M 401.5,247.5 C 404.497,254.858 403.83,261.858 399.5,268.5C 398.5,268.833 397.833,269.5 397.5,270.5C 395.883,273.784 393.55,276.451 390.5,278.5C 375.955,288.945 360.289,297.611 343.5,304.5C 339.422,302.586 335.755,300.086 332.5,297C 347.24,290.463 361.573,283.13 375.5,275C 382.131,270.525 388.131,265.358 393.5,259.5C 396.675,255.81 399.342,251.81 401.5,247.5 Z"/></g>
<g><path style="opacity:0.049" fill="#f5f5f5" d="M 128.5,249.5 C 130.027,249.427 131.027,250.094 131.5,251.5C 129.973,251.573 128.973,250.906 128.5,249.5 Z"/></g>
<g><path style="opacity:0.961" fill="#858585" d="M 131.5,251.5 C 132.71,251.932 133.71,252.599 134.5,253.5C 132.821,253.715 131.821,253.048 131.5,251.5 Z"/></g>
<g><path style="opacity:0.125" fill="#e8e8e8" d="M 134.5,253.5 C 136.674,253.75 138.341,254.75 139.5,256.5C 137.326,256.25 135.659,255.25 134.5,253.5 Z"/></g>
<g><path style="opacity:0.631" fill="#c0c0c0" d="M 123.5,251.5 C 123.706,254.495 123.04,257.162 121.5,259.5C 121.565,256.572 122.232,253.905 123.5,251.5 Z"/></g>
<g><path style="opacity:0.12" fill="#efefef" d="M 139.5,256.5 C 141.674,256.75 143.341,257.75 144.5,259.5C 142.326,259.25 140.659,258.25 139.5,256.5 Z"/></g>
<g><path style="opacity:0.183" fill="#ebebeb" d="M 145.5,260.5 C 152.917,264.062 160.25,267.895 167.5,272C 169.766,273.426 171.432,275.26 172.5,277.5C 163.295,272.069 154.295,266.403 145.5,260.5 Z"/></g>
<g><path style="opacity:0.004" fill="#dadada" d="M 399.5,268.5 C 399.5,269.833 398.833,270.5 397.5,270.5C 397.833,269.5 398.5,268.833 399.5,268.5 Z"/></g>
<g><path style="opacity:0.776" fill="#8c8c8c" d="M 120.5,267.5 C 120.102,271.761 119.102,275.761 117.5,279.5C 117.584,275.163 118.584,271.163 120.5,267.5 Z"/></g>
<g><path style="opacity:0.992" fill="#1e8fc4" d="M 394.5,254.5 C 394.371,256.216 394.038,257.883 393.5,259.5C 388.131,265.358 382.131,270.525 375.5,275C 361.573,283.13 347.24,290.463 332.5,297C 335.755,300.086 339.422,302.586 343.5,304.5C 360.289,297.611 375.955,288.945 390.5,278.5C 386.803,293.333 383.47,308.333 380.5,323.5C 379.662,323.842 379.328,324.508 379.5,325.5C 378.167,325.167 376.833,324.833 375.5,324.5C 369.139,320.989 362.472,317.989 355.5,315.5C 348.372,311.768 341.372,307.768 334.5,303.5C 333.027,301.605 331.36,299.939 329.5,298.5C 331.408,297.514 332.408,295.848 332.5,293.5C 346.845,287.16 360.845,279.993 374.5,272C 382.274,267.39 388.941,261.557 394.5,254.5 Z"/></g>
<g><path style="opacity:0.388" fill="#b8b8b8" d="M 115.5,288.5 C 115.58,291.781 114.913,294.781 113.5,297.5C 113.42,294.219 114.087,291.219 115.5,288.5 Z"/></g>
<g><path style="opacity:1" fill="#116ca4" d="M 329.5,298.5 C 331.36,299.939 333.027,301.605 334.5,303.5C 333.515,307.634 333.182,311.968 333.5,316.5C 329.566,314.402 326.4,311.402 324,307.5C 322.704,304.429 321.538,301.429 320.5,298.5C 320.113,293.92 320.947,289.586 323,285.5C 324.126,290.418 326.292,294.752 329.5,298.5 Z"/></g>
<g><path style="opacity:1" fill="#188bc1" d="M 320.5,298.5 C 321.538,301.429 322.704,304.429 324,307.5C 326.4,311.402 329.566,314.402 333.5,316.5C 339.653,322.083 346.653,326.416 354.5,329.5C 361.101,332.801 367.768,336.134 374.5,339.5C 375.167,339.5 375.5,339.833 375.5,340.5C 374.833,341.167 374.167,341.833 373.5,342.5C 371.287,341.227 368.954,340.227 366.5,339.5C 361.667,336.582 356.667,333.916 351.5,331.5C 346.667,328.582 341.667,325.916 336.5,323.5C 330.749,318.713 325.583,313.38 321,307.5C 320.009,305.192 319.176,302.859 318.5,300.5C 319.833,300.5 320.5,299.833 320.5,298.5 Z"/></g>
<g><path style="opacity:1" fill="#09679e" d="M 318.5,300.5 C 319.176,302.859 320.009,305.192 321,307.5C 325.583,313.38 330.749,318.713 336.5,323.5C 335.515,327.634 335.182,331.968 335.5,336.5C 331.354,333.922 327.354,331.089 323.5,328C 315.128,320.345 312.795,311.178 316.5,300.5C 317.222,300.082 317.722,299.416 318,298.5C 318.464,299.094 318.631,299.761 318.5,300.5 Z"/></g>
<g><path style="opacity:0.235" fill="#aeaeae" d="M 112.5,303.5 C 112.435,306.428 111.768,309.095 110.5,311.5C 110.294,308.505 110.96,305.838 112.5,303.5 Z"/></g>
<g><path style="opacity:1" fill="#075380" d="M 334.5,303.5 C 341.372,307.768 348.372,311.768 355.5,315.5C 354.514,319.97 354.181,324.637 354.5,329.5C 346.653,326.416 339.653,322.083 333.5,316.5C 333.182,311.968 333.515,307.634 334.5,303.5 Z"/></g>
<g><path style="opacity:1" fill="#053b5b" d="M 355.5,315.5 C 362.472,317.989 369.139,320.989 375.5,324.5C 374.513,329.305 374.179,334.305 374.5,339.5C 367.768,336.134 361.101,332.801 354.5,329.5C 354.181,324.637 354.514,319.97 355.5,315.5 Z"/></g>
<g><path style="opacity:0.037" fill="#ebeff1" d="M 380.5,323.5 C 381.167,324.833 381.833,326.167 382.5,327.5C 380.973,327.573 379.973,326.906 379.5,325.5C 379.328,324.508 379.662,323.842 380.5,323.5 Z"/></g>
<g><path style="opacity:1" fill="#0c517a" d="M 336.5,323.5 C 341.667,325.916 346.667,328.582 351.5,331.5C 351.221,336.595 351.555,341.595 352.5,346.5C 351.508,346.672 350.842,346.338 350.5,345.5C 349.486,344.326 348.153,343.66 346.5,343.5C 345.71,342.599 344.71,341.932 343.5,341.5C 340.869,339.847 338.203,338.181 335.5,336.5C 335.182,331.968 335.515,327.634 336.5,323.5 Z"/></g>
<g><path style="opacity:0.997" fill="#0e293a" d="M 375.5,324.5 C 376.833,324.833 378.167,325.167 379.5,325.5C 379.973,326.906 380.973,327.573 382.5,327.5C 389.318,330.326 395.318,334.326 400.5,339.5C 398.554,344.396 397.887,349.729 398.5,355.5C 391.625,349.293 383.959,344.293 375.5,340.5C 375.5,339.833 375.167,339.5 374.5,339.5C 374.179,334.305 374.513,329.305 375.5,324.5 Z"/></g>
<g><path style="opacity:0.192" fill="#ecf5fa" d="M 233.5,318.5 C 232.705,323.149 232.539,327.816 233,332.5C 235.001,335.331 237.167,337.997 239.5,340.5C 236.162,339.577 233.662,337.577 232,334.5C 231.077,328.895 231.577,323.561 233.5,318.5 Z"/></g>
<g><path style="opacity:0.998" fill="#104161" d="M 351.5,331.5 C 356.667,333.916 361.667,336.582 366.5,339.5C 365.2,344.4 365.2,349.4 366.5,354.5C 364.847,354.34 363.514,353.674 362.5,352.5C 362.027,351.094 361.027,350.427 359.5,350.5C 358.005,350.011 356.671,349.345 355.5,348.5C 355.027,347.094 354.027,346.427 352.5,346.5C 351.555,341.595 351.221,336.595 351.5,331.5 Z"/></g>
<g><path style="opacity:0.004" fill="#e1e1e1" d="M 110.5,336.5 C 111.5,336.833 112.167,337.5 112.5,338.5C 111.167,338.5 110.5,337.833 110.5,336.5 Z"/></g>
<g><path style="opacity:0.016" fill="#bec2c4" d="M 400.5,339.5 C 402.5,339.5 403.5,340.5 403.5,342.5C 402.167,341.833 401.167,340.833 400.5,339.5 Z"/></g>
<g><path style="opacity:0.412" fill="#8dc8e3" d="M 241.5,341.5 C 275.5,341.5 309.5,341.5 343.5,341.5C 344.71,341.932 345.71,342.599 346.5,343.5C 311.36,342.853 276.36,342.186 241.5,341.5 Z"/></g>
<g><path style="opacity:1" fill="#083048" d="M 366.5,339.5 C 368.954,340.227 371.287,341.227 373.5,342.5C 375.368,343.263 377.035,344.263 378.5,345.5C 378.334,350.844 378.501,356.177 379,361.5C 379.717,362.044 380.217,362.711 380.5,363.5C 378.973,363.573 377.973,362.906 377.5,361.5C 377.027,360.094 376.027,359.427 374.5,359.5C 374.027,358.094 373.027,357.427 371.5,357.5C 370.833,357.167 370.167,356.833 369.5,356.5C 369.027,355.094 368.027,354.427 366.5,354.5C 365.2,349.4 365.2,344.4 366.5,339.5 Z"/></g>
<g><path style="opacity:0.907" fill="#e2e5e6" d="M 375.5,340.5 C 383.959,344.293 391.625,349.293 398.5,355.5C 406.061,362.953 410.727,371.953 412.5,382.5C 411.503,382.47 410.836,382.97 410.5,384C 410.095,389.537 408.762,394.704 406.5,399.5C 412.212,382.318 408.212,367.985 394.5,356.5C 389.722,352.06 384.388,348.393 378.5,345.5C 377.035,344.263 375.368,343.263 373.5,342.5C 374.167,341.833 374.833,341.167 375.5,340.5 Z"/></g>
<g><path style="opacity:0.016" fill="#c5c6c9" d="M 403.5,342.5 C 405.5,342.5 406.5,343.5 406.5,345.5C 405.167,344.833 404.167,343.833 403.5,342.5 Z"/></g>
<g><path style="opacity:0.053" fill="#e4ebef" d="M 346.5,343.5 C 348.153,343.66 349.486,344.326 350.5,345.5C 348.62,345.771 347.287,345.104 346.5,343.5 Z"/></g>
<g><path style="opacity:0.997" fill="#0e1417" d="M 400.5,339.5 C 401.167,340.833 402.167,341.833 403.5,342.5C 404.167,343.833 405.167,344.833 406.5,345.5C 406.738,347.404 407.738,348.738 409.5,349.5C 410.674,350.514 411.34,351.847 411.5,353.5C 411.66,355.153 412.326,356.486 413.5,357.5C 415.435,364.023 415.935,370.689 415,377.5C 414.901,379.653 414.067,381.319 412.5,382.5C 410.727,371.953 406.061,362.953 398.5,355.5C 397.887,349.729 398.554,344.396 400.5,339.5 Z"/></g>
<g><path style="opacity:0.6" fill="#868a8c" d="M 406.5,345.5 C 408.262,346.262 409.262,347.596 409.5,349.5C 407.738,348.738 406.738,347.404 406.5,345.5 Z"/></g>
<g><path style="opacity:0.184" fill="#ced8df" d="M 352.5,346.5 C 354.027,346.427 355.027,347.094 355.5,348.5C 353.973,348.573 352.973,347.906 352.5,346.5 Z"/></g>
<g><path style="opacity:0.122" fill="#dbe4e7" d="M 359.5,350.5 C 361.027,350.427 362.027,351.094 362.5,352.5C 360.973,352.573 359.973,351.906 359.5,350.5 Z"/></g>
<g><path style="opacity:0.997" fill="#081d2b" d="M 378.5,345.5 C 384.388,348.393 389.722,352.06 394.5,356.5C 393.223,363.371 393.223,370.371 394.5,377.5C 393.094,377.027 392.427,376.027 392.5,374.5C 391.5,372.833 390.167,371.5 388.5,370.5C 387.833,369.167 386.833,368.167 385.5,367.5C 384.508,367.672 383.842,367.338 383.5,366.5C 383.167,365.5 382.5,364.833 381.5,364.5C 380.833,364.5 380.5,364.167 380.5,363.5C 380.217,362.711 379.717,362.044 379,361.5C 378.501,356.177 378.334,350.844 378.5,345.5 Z"/></g>
<g><path style="opacity:0.165" fill="#bdc6cf" d="M 366.5,354.5 C 368.027,354.427 369.027,355.094 369.5,356.5C 367.973,356.573 366.973,355.906 366.5,354.5 Z"/></g>
<g><path style="opacity:0.09" fill="#b7b8b8" d="M 411.5,353.5 C 413.104,354.287 413.771,355.62 413.5,357.5C 412.326,356.486 411.66,355.153 411.5,353.5 Z"/></g>
<g><path style="opacity:0.286" fill="#a8b6bd" d="M 371.5,357.5 C 373.027,357.427 374.027,358.094 374.5,359.5C 372.973,359.573 371.973,358.906 371.5,357.5 Z"/></g>
<g><path style="opacity:0.424" fill="#a0aeb4" d="M 374.5,359.5 C 376.027,359.427 377.027,360.094 377.5,361.5C 375.973,361.573 374.973,360.906 374.5,359.5 Z"/></g>
<g><path style="opacity:0.993" fill="#0f1519" d="M 394.5,356.5 C 408.212,367.985 412.212,382.318 406.5,399.5C 406.5,400.167 406.167,400.5 405.5,400.5C 405.125,398.302 404.458,396.302 403.5,394.5C 401.066,388.529 398.066,382.862 394.5,377.5C 393.223,370.371 393.223,363.371 394.5,356.5 Z"/></g>
<g><path style="opacity:0.008" fill="#e7e9eb" d="M 381.5,364.5 C 382.5,364.833 383.167,365.5 383.5,366.5C 382.167,366.5 381.5,365.833 381.5,364.5 Z"/></g>
<g><path style="opacity:0.039" fill="#c6cbce" d="M 385.5,367.5 C 386.833,368.167 387.833,369.167 388.5,370.5C 386.5,370.5 385.5,369.5 385.5,367.5 Z"/></g>
<g><path style="opacity:0.008" fill="#cfd3d5" d="M 388.5,370.5 C 390.167,371.5 391.5,372.833 392.5,374.5C 390.167,374.167 388.833,372.833 388.5,370.5 Z"/></g>
<g><path style="opacity:0.041" fill="#bbbcbd" d="M 403.5,394.5 C 404.458,396.302 405.125,398.302 405.5,400.5C 403.72,399.01 403.054,397.01 403.5,394.5 Z"/></g>
</svg>
